# xmcd
#
# Track frame offsets:
# 150
# 5563
# 27982
# 49242
# 73228
# 95099
# 114433
# 122146
# 142420
# 166007
# 194969
# 219147
# 228479
# 245910
# 265315
# 289355
# 329804
#
# Disc length: 4438 seconds
#
# Revision: 0
# Processed by: cddbd v1.4PL0 Copyright (c) Steve Scherf et al.
# Submitted via: Audion 3.0.2 (http://www.panic.com/audion/)
#
DISCID=1b115411
DTITLE=Pressure Drop - Food Of Love
DYEAR=1900
DGENRE=
TTITLE0=intro
TTITLE1=you're mine
TTITLE2=everything'll be alright tommorow
TTITLE3=big noise
TTITLE4=part 13
TTITLE5=groove me
TTITLE6=the gardener
TTITLE7=gotta make it home
TTITLE8=spirits fall
TTITLE9=back2back
TTITLE10=unify
TTITLE11=sympton
TTITLE12=wake up the minds
TTITLE13=legacy
TTITLE14=the calling
TTITLE15=after the storm
TTITLE16=outro
EXTD=
EXTT0=
EXTT1=
EXTT2=
EXTT3=
EXTT4=
EXTT5=
EXTT6=
EXTT7=
EXTT8=
EXTT9=
EXTT10=
EXTT11=
EXTT12=
EXTT13=
EXTT14=
EXTT15=
EXTT16=
PLAYORDER=
